{"title":"The.Comic.Strip.Complete.Collection.D3.DVDRip.x264.Iou1","uid":8552141,"size":1548170996,"categoryP":"video","categoryS":"tv_shows","magnet":"?xt=urn:btih:ce6b61cbca7580de6937b4f5d8ad884bccc5f696&amp;dn=The.Comic.Strip.Complete.Collection.D3.DVDRip.x264.Iou1&amp;tr=udp%3A%2F%2Ftracker.openbittorrent.com%3A80&amp;tr=udp%3A%2F%2Fopen.demonii.com%3A1337&amp;tr=udp%3A%2F%2Ftracker.coppersurfer.tk%3A6969&amp;tr=udp%3A%2F%2Fexodus.desync.com%3A6969","seeders":0,"leechers":2,"uploader":"jaybee211","files":-1,"time":1370667277,"description":"Disc 3 Of 9\n\n12.Slags                                 : 720x548 30m 30s\n13.The Bullshitters                      : 720x544 40m 30s\n14.The Supergrass                        : 720x502 93m 46s \n15.Consuela                              : 720x552 35m 52s\n\nNote. Video/Audio Bitrate varies slightly in all 4 clips\n\nFormat                                   : MPEG-4\nFile size                                : 1.44 GiB\nDuration                                 : 3h 20mn 41s\nOverall bit rate mode                    : Variable\nOverall bit rate                         : 1 063 Kbps\n\nVideo\nFormat settings, CABAC                   : Yes\nFormat settings, ReFrames                : 1 frame\nCodec ID                                 : avc1\nDuration                                 : 3h 20mn 41s\nBit rate mode                            : Variable\nBit rate                                 : 987 Kbps\nFrame rate mode                          : Constant\nFrame rate                               : 25.000 fps\nBit depth                                : 8 bits\nScan type                                : Progressive\nBits/(Pixel*Frame)                       : 0.100\nStream size                              : 1.34 GiB (93%)\nWriting library                          : x264 core\n\nAudio\nFormat                                   : AAC\nDuration                                 : 3h 20mn 41s\nBit rate mode                            : Variable\nBit rate                                 : 72.0 Kbps\nMaximum bit rate                         : 87.7 Kbps\nChannel(s)                               : 2 channels\nChannel positions                        : Front: L R\nSampling rate                            : 48.0 KHz\nCompression mode                         : Lossy\nStream size                              : 100 MiB (7%)\nLanguage                                 : English\nSubtitles                                : None\n\nIMDB. &lt;a href=&quot; http://www.imdb.com/title/tt0083402/&quot; rel=&quot;nofollow&quot; target=&quot;_NEW&quot;&gt; http://www.imdb.com/title/tt0083402/&lt;/a&gt;\n\nScreens. &lt;a href=&quot; http://bayimg.com/fANBeAAEc&quot; rel=&quot;nofollow&quot; target=&quot;_NEW&quot;&gt; http://bayimg.com/fANBeAAEc&lt;/a&gt;\n\n         &lt;a href=&quot; http://bayimg.com/faNBgaaeC&quot; rel=&quot;nofollow&quot; target=&quot;_NEW&quot;&gt; http://bayimg.com/faNBgaaeC&lt;/a&gt;\n\n         &lt;a href=&quot; http://bayimg.com/fANbjAaeC&quot; rel=&quot;nofollow&quot; target=&quot;_NEW&quot;&gt; http://bayimg.com/fANbjAaeC&lt;/a&gt;\n\n         &lt;a href=&quot; http://bayimg.com/faNbMaaEC&quot; rel=&quot;nofollow&quot; target=&quot;_NEW&quot;&gt; http://bayimg.com/faNbMaaEC&lt;/a&gt;  \n\nEnjoy.","torrent":{"xt":"urn:btih:ce6b61cbca7580de6937b4f5d8ad884bccc5f696","amp;dn":"The.Comic.Strip.Complete.Collection.D3.DVDRip.x264.Iou1","amp;tr":["udp%3A%2F%2Ftracker.openbittorrent.com%3A80","udp%3A%2F%2Fopen.demonii.com%3A1337","udp%3A%2F%2Ftracker.coppersurfer.tk%3A6969","udp%3A%2F%2Fexodus.desync.com%3A6969"],"infoHash":"ce6b61cbca7580de6937b4f5d8ad884bccc5f696","infoHashBuffer":{"type":"Buffer","data":[206,107,97,203,202,117,128,222,105,55,180,245,216,173,136,75,204,197,246,150]},"announce":[],"urlList":[]}}